<svg id="visual" viewBox="0 0 900 600" width="900" height="600" xmlns="http://www.w3.org/2000/svg" xmlns:xlink="http://www.w3.org/1999/xlink" version="1.1"><rect x="0" y="0" width="900" height="600" fill="#001122"></rect><path d="M0 374L129 439L257 420L386 414L514 396L643 389L771 446L900 414L900 601L771 601L643 601L514 601L386 601L257 601L129 601L0 601Z" fill="#715df2"></path><path d="M0 408L129 467L257 410L386 404L514 438L643 468L771 445L900 431L900 601L771 601L643 601L514 601L386 601L257 601L129 601L0 601Z" fill="#5646b9"></path><path d="M0 457L129 472L257 511L386 443L514 508L643 481L771 461L900 440L900 601L771 601L643 601L514 601L386 601L257 601L129 601L0 601Z" fill="#3c3083"></path><path d="M0 517L129 502L257 514L386 528L514 524L643 527L771 541L900 494L900 601L771 601L643 601L514 601L386 601L257 601L129 601L0 601Z" fill="#241c51"></path><path d="M0 542L129 529L257 530L386 534L514 551L643 568L771 551L900 556L900 601L771 601L643 601L514 601L386 601L257 601L129 601L0 601Z" fill="#100324"></path></svg>