<svg id="visual" viewBox="0 0 900 600" width="900" height="600" xmlns="http://www.w3.org/2000/svg" xmlns:xlink="http://www.w3.org/1999/xlink" version="1.1"><rect x="0" y="0" width="900" height="600" fill="#001220"></rect><path d="M338 0L326.2 14.3C314.3 28.7 290.7 57.3 285.8 85.8C281 114.3 295 142.7 309.7 171.2C324.3 199.7 339.7 228.3 339.8 257C340 285.7 325 314.3 324.3 343C323.7 371.7 337.3 400.3 327.5 428.8C317.7 457.3 284.3 485.7 277.2 514.2C270 542.7 289 571.3 298.5 585.7L308 600L0 600L0 585.7C0 571.3 0 542.7 0 514.2C0 485.7 0 457.3 0 428.8C0 400.3 0 371.7 0 343C0 314.3 0 285.7 0 257C0 228.3 0 199.7 0 171.2C0 142.7 0 114.3 0 85.8C0 57.3 0 28.7 0 14.3L0 0Z" fill="#fa7268"></path><path d="M283 0L266.5 14.3C250 28.7 217 57.3 205.7 85.8C194.3 114.3 204.7 142.7 218.8 171.2C233 199.7 251 228.3 249.2 257C247.3 285.7 225.7 314.3 223.5 343C221.3 371.7 238.7 400.3 252.2 428.8C265.7 457.3 275.3 485.7 270.2 514.2C265 542.7 245 571.3 235 585.7L225 600L0 600L0 585.7C0 571.3 0 542.7 0 514.2C0 485.7 0 457.3 0 428.8C0 400.3 0 371.7 0 343C0 314.3 0 285.7 0 257C0 228.3 0 199.7 0 171.2C0 142.7 0 114.3 0 85.8C0 57.3 0 28.7 0 14.3L0 0Z" fill="#ef5f67"></path><path d="M216 0L212.3 14.3C208.7 28.7 201.3 57.3 196.2 85.8C191 114.3 188 142.7 183.8 171.2C179.7 199.7 174.3 228.3 171.3 257C168.3 285.7 167.7 314.3 167.3 343C167 371.7 167 400.3 166.2 428.8C165.3 457.3 163.7 485.7 161 514.2C158.3 542.7 154.7 571.3 152.8 585.7L151 600L0 600L0 585.7C0 571.3 0 542.7 0 514.2C0 485.7 0 457.3 0 428.8C0 400.3 0 371.7 0 343C0 314.3 0 285.7 0 257C0 228.3 0 199.7 0 171.2C0 142.7 0 114.3 0 85.8C0 57.3 0 28.7 0 14.3L0 0Z" fill="#e34c67"></path><path d="M128 0L135.5 14.3C143 28.7 158 57.3 159.8 85.8C161.7 114.3 150.3 142.7 140.8 171.2C131.3 199.7 123.7 228.3 122.7 257C121.7 285.7 127.3 314.3 131.3 343C135.3 371.7 137.7 400.3 130.2 428.8C122.7 457.3 105.3 485.7 103.2 514.2C101 542.7 114 571.3 120.5 585.7L127 600L0 600L0 585.7C0 571.3 0 542.7 0 514.2C0 485.7 0 457.3 0 428.8C0 400.3 0 371.7 0 343C0 314.3 0 285.7 0 257C0 228.3 0 199.7 0 171.2C0 142.7 0 114.3 0 85.8C0 57.3 0 28.7 0 14.3L0 0Z" fill="#d53867"></path><path d="M57 0L57 14.3C57 28.7 57 57.3 54.5 85.8C52 114.3 47 142.7 52 171.2C57 199.7 72 228.3 72.3 257C72.7 285.7 58.3 314.3 55.3 343C52.3 371.7 60.7 400.3 70 428.8C79.3 457.3 89.7 485.7 91.8 514.2C94 542.7 88 571.3 85 585.7L82 600L0 600L0 585.7C0 571.3 0 542.7 0 514.2C0 485.7 0 457.3 0 428.8C0 400.3 0 371.7 0 343C0 314.3 0 285.7 0 257C0 228.3 0 199.7 0 171.2C0 142.7 0 114.3 0 85.8C0 57.3 0 28.7 0 14.3L0 0Z" fill="#c62368"></path></svg>