<svg id="visual" viewBox="0 0 900 600" width="900" height="600" xmlns="http://www.w3.org/2000/svg" xmlns:xlink="http://www.w3.org/1999/xlink" version="1.1"><rect x="0" y="0" width="900" height="600" fill="#001220"></rect><path d="M579 600L591 585.7C603 571.3 627 542.7 618.3 514.2C609.7 485.7 568.3 457.3 560.8 428.8C553.3 400.3 579.7 371.7 585.8 343C592 314.3 578 285.7 585.7 257C593.3 228.3 622.7 199.7 629.8 171.2C637 142.7 622 114.3 602.7 85.8C583.3 57.3 559.7 28.7 547.8 14.3L536 0L900 0L900 14.3C900 28.7 900 57.3 900 85.8C900 114.3 900 142.7 900 171.2C900 199.7 900 228.3 900 257C900 285.7 900 314.3 900 343C900 371.7 900 400.3 900 428.8C900 457.3 900 485.7 900 514.2C900 542.7 900 571.3 900 585.7L900 600Z" fill="#fa7268"></path><path d="M691 600L689.2 585.7C687.3 571.3 683.7 542.7 682.5 514.2C681.3 485.7 682.7 457.3 670 428.8C657.3 400.3 630.7 371.7 624.3 343C618 314.3 632 285.7 641.7 257C651.3 228.3 656.7 199.7 667.3 171.2C678 142.7 694 114.3 698.8 85.8C703.7 57.3 697.3 28.7 694.2 14.3L691 0L900 0L900 14.3C900 28.7 900 57.3 900 85.8C900 114.3 900 142.7 900 171.2C900 199.7 900 228.3 900 257C900 285.7 900 314.3 900 343C900 371.7 900 400.3 900 428.8C900 457.3 900 485.7 900 514.2C900 542.7 900 571.3 900 585.7L900 600Z" fill="#ef5f67"></path><path d="M697 600L698.7 585.7C700.3 571.3 703.7 542.7 713.7 514.2C723.7 485.7 740.3 457.3 734.3 428.8C728.3 400.3 699.7 371.7 686 343C672.3 314.3 673.7 285.7 680.2 257C686.7 228.3 698.3 199.7 707.2 171.2C716 142.7 722 114.3 731.5 85.8C741 57.3 754 28.7 760.5 14.3L767 0L900 0L900 14.3C900 28.7 900 57.3 900 85.8C900 114.3 900 142.7 900 171.2C900 199.7 900 228.3 900 257C900 285.7 900 314.3 900 343C900 371.7 900 400.3 900 428.8C900 457.3 900 485.7 900 514.2C900 542.7 900 571.3 900 585.7L900 600Z" fill="#e34c67"></path><path d="M728 600L734 585.7C740 571.3 752 542.7 754 514.2C756 485.7 748 457.3 742 428.8C736 400.3 732 371.7 733 343C734 314.3 740 285.7 746.2 257C752.3 228.3 758.7 199.7 760.3 171.2C762 142.7 759 114.3 754 85.8C749 57.3 742 28.7 738.5 14.3L735 0L900 0L900 14.3C900 28.7 900 57.3 900 85.8C900 114.3 900 142.7 900 171.2C900 199.7 900 228.3 900 257C900 285.7 900 314.3 900 343C900 371.7 900 400.3 900 428.8C900 457.3 900 485.7 900 514.2C900 542.7 900 571.3 900 585.7L900 600Z" fill="#d53867"></path><path d="M839 600L832 585.7C825 571.3 811 542.7 809.2 514.2C807.3 485.7 817.7 457.3 817.3 428.8C817 400.3 806 371.7 800.2 343C794.3 314.3 793.7 285.7 801.5 257C809.3 228.3 825.7 199.7 833.7 171.2C841.7 142.7 841.3 114.3 836.5 85.8C831.7 57.3 822.3 28.7 817.7 14.3L813 0L900 0L900 14.3C900 28.7 900 57.3 900 85.8C900 114.3 900 142.7 900 171.2C900 199.7 900 228.3 900 257C900 285.7 900 314.3 900 343C900 371.7 900 400.3 900 428.8C900 457.3 900 485.7 900 514.2C900 542.7 900 571.3 900 585.7L900 600Z" fill="#c62368"></path></svg>